<svg width="800" height="980" viewBox="0 0 800 980" fill="none" xmlns="http://www.w3.org/2000/svg">
  <defs>
    <linearGradient id="bg" x1="0" y1="0" x2="1" y2="1">
      <stop offset="0" stop-color="#2D1E1A"/>
      <stop offset="1" stop-color="#704F3A"/>
    </linearGradient>
  </defs>
  <rect width="800" height="980" fill="url(#bg)"/>
  <circle cx="400" cy="300" r="140" fill="#D6AF87"/>
  <path d="M240 930C240 760 300 620 400 620C500 620 560 760 560 930H240Z" fill="#251814"/>
  <path d="M270 410C270 290 325 220 400 220C475 220 530 290 530 410C500 460 455 500 400 500C345 500 300 460 270 410Z" fill="#C19B77"/>
  <path d="M295 360C295 275 350 220 400 220C450 220 505 275 505 360C470 320 440 305 400 305C360 305 330 320 295 360Z" fill="#2A2018"/>
  <rect x="50" y="60" width="700" height="860" stroke="rgba(255,255,255,0.25)" stroke-width="2"/>
</svg>
