<svg width="900" height="1100" viewBox="0 0 900 1100" fill="none" xmlns="http://www.w3.org/2000/svg">
  <defs>
    <linearGradient id="bg" x1="0" y1="0" x2="1" y2="1">
      <stop offset="0" stop-color="#203040"/>
      <stop offset="1" stop-color="#895B37"/>
    </linearGradient>
  </defs>
  <rect width="900" height="1100" fill="url(#bg)"/>
  <circle cx="450" cy="360" r="170" fill="#E6C7A2"/>
  <path d="M290 1030C290 830 350 670 450 670C550 670 610 830 610 1030H290Z" fill="#112331"/>
  <path d="M300 460C300 330 360 250 450 250C540 250 600 330 600 460C560 520 510 560 450 560C390 560 340 520 300 460Z" fill="#D8B28E"/>
  <path d="M320 430C320 290 380 210 450 210C520 210 580 290 580 430C550 360 510 320 450 320C390 320 350 360 320 430Z" fill="#1E1A1A"/>
  <rect x="60" y="80" width="780" height="940" stroke="rgba(255,255,255,0.3)" stroke-width="2"/>
</svg>
